<?xml version="1.0" encoding="utf-8" standalone="no"?>
<!DOCTYPE svg PUBLIC "-//W3C//DTD SVG 1.1//EN"
  "http://www.w3.org/Graphics/SVG/1.1/DTD/svg11.dtd">
<svg height="248.518125pt" version="1.1" viewBox="0 0 380.482812 248.518125" width="380.482812pt" xmlns="http://www.w3.org/2000/svg" xmlns:xlink="http://www.w3.org/1999/xlink">
 <metadata>
  <rdf:RDF xmlns:cc="http://creativecommons.org/ns#" xmlns:dc="http://purl.org/dc/elements/1.1/" xmlns:rdf="http://www.w3.org/1999/02/22-rdf-syntax-ns#">
   <cc:Work>
    <dc:type rdf:resource="http://purl.org/dc/dcmitype/StillImage"/>
    <dc:date>2022-05-10T19:28:40.840857</dc:date>
    <dc:format>image/svg+xml</dc:format>
    <dc:creator>
     <cc:Agent>
      <dc:title>Matplotlib v3.4.3, https://matplotlib.org/</dc:title>
     </cc:Agent>
    </dc:creator>
   </cc:Work>
  </rdf:RDF>
 </metadata>
 <defs>
  <style type="text/css">*{stroke-linecap:butt;stroke-linejoin:round;}</style>
 </defs>
 <g id="figure_1">
  <g id="patch_1">
   <path d="M -0 248.518125 
L 380.482812 248.518125 
L 380.482812 0 
L -0 0 
z
" style="fill:none;"/>
  </g>
  <g id="axes_1">
   <g id="patch_2">
    <path d="M 38.482813 224.64 
L 373.282813 224.64 
L 373.282813 7.2 
L 38.482813 7.2 
z
" style="fill:#ffffff;"/>
   </g>
   <g id="matplotlib.axis_1">
    <g id="xtick_1">
     <g id="line2d_1">
      <defs>
       <path d="M 0 0 
L 0 3.5 
" id="mab0a658ca2" style="stroke:#000000;stroke-width:0.8;"/>
      </defs>
      <g>
       <use style="stroke:#000000;stroke-width:0.8;" x="58.863088" xlink:href="#mab0a658ca2" y="224.64"/>
      </g>
     </g>
     <g id="text_1">
      <!-- 0.0 -->
      <g transform="translate(50.911525 239.238437)scale(0.1 -0.1)">
       <defs>
        <path d="M 2034 4250 
Q 1547 4250 1301 3770 
Q 1056 3291 1056 2328 
Q 1056 1369 1301 889 
Q 1547 409 2034 409 
Q 2525 409 2770 889 
Q 3016 1369 3016 2328 
Q 3016 3291 2770 3770 
Q 2525 4250 2034 4250 
z
M 2034 4750 
Q 2819 4750 3233 4129 
Q 3647 3509 3647 2328 
Q 3647 1150 3233 529 
Q 2819 -91 2034 -91 
Q 1250 -91 836 529 
Q 422 1150 422 2328 
Q 422 3509 836 4129 
Q 1250 4750 2034 4750 
z
" id="DejaVuSans-30" transform="scale(0.015625)"/>
        <path d="M 684 794 
L 1344 794 
L 1344 0 
L 684 0 
L 684 794 
z
" id="DejaVuSans-2e" transform="scale(0.015625)"/>
       </defs>
       <use xlink:href="#DejaVuSans-30"/>
       <use x="63.623047" xlink:href="#DejaVuSans-2e"/>
       <use x="95.410156" xlink:href="#DejaVuSans-30"/>
      </g>
     </g>
    </g>
    <g id="xtick_2">
     <g id="line2d_2">
      <g>
       <use style="stroke:#000000;stroke-width:0.8;" x="104.894094" xlink:href="#mab0a658ca2" y="224.64"/>
      </g>
     </g>
     <g id="text_2">
      <!-- 0.2 -->
      <g transform="translate(96.942532 239.238437)scale(0.1 -0.1)">
       <defs>
        <path d="M 1228 531 
L 3431 531 
L 3431 0 
L 469 0 
L 469 531 
Q 828 903 1448 1529 
Q 2069 2156 2228 2338 
Q 2531 2678 2651 2914 
Q 2772 3150 2772 3378 
Q 2772 3750 2511 3984 
Q 2250 4219 1831 4219 
Q 1534 4219 1204 4116 
Q 875 4013 500 3803 
L 500 4441 
Q 881 4594 1212 4672 
Q 1544 4750 1819 4750 
Q 2544 4750 2975 4387 
Q 3406 4025 3406 3419 
Q 3406 3131 3298 2873 
Q 3191 2616 2906 2266 
Q 2828 2175 2409 1742 
Q 1991 1309 1228 531 
z
" id="DejaVuSans-32" transform="scale(0.015625)"/>
       </defs>
       <use xlink:href="#DejaVuSans-30"/>
       <use x="63.623047" xlink:href="#DejaVuSans-2e"/>
       <use x="95.410156" xlink:href="#DejaVuSans-32"/>
      </g>
     </g>
    </g>
    <g id="xtick_3">
     <g id="line2d_3">
      <g>
       <use style="stroke:#000000;stroke-width:0.8;" x="150.925101" xlink:href="#mab0a658ca2" y="224.64"/>
      </g>
     </g>
     <g id="text_3">
      <!-- 0.4 -->
      <g transform="translate(142.973538 239.238437)scale(0.1 -0.1)">
       <defs>
        <path d="M 2419 4116 
L 825 1625 
L 2419 1625 
L 2419 4116 
z
M 2253 4666 
L 3047 4666 
L 3047 1625 
L 3713 1625 
L 3713 1100 
L 3047 1100 
L 3047 0 
L 2419 0 
L 2419 1100 
L 313 1100 
L 313 1709 
L 2253 4666 
z
" id="DejaVuSans-34" transform="scale(0.015625)"/>
       </defs>
       <use xlink:href="#DejaVuSans-30"/>
       <use x="63.623047" xlink:href="#DejaVuSans-2e"/>
       <use x="95.410156" xlink:href="#DejaVuSans-34"/>
      </g>
     </g>
    </g>
    <g id="xtick_4">
     <g id="line2d_4">
      <g>
       <use style="stroke:#000000;stroke-width:0.8;" x="196.956107" xlink:href="#mab0a658ca2" y="224.64"/>
      </g>
     </g>
     <g id="text_4">
      <!-- 0.6 -->
      <g transform="translate(189.004545 239.238437)scale(0.1 -0.1)">
       <defs>
        <path d="M 2113 2584 
Q 1688 2584 1439 2293 
Q 1191 2003 1191 1497 
Q 1191 994 1439 701 
Q 1688 409 2113 409 
Q 2538 409 2786 701 
Q 3034 994 3034 1497 
Q 3034 2003 2786 2293 
Q 2538 2584 2113 2584 
z
M 3366 4563 
L 3366 3988 
Q 3128 4100 2886 4159 
Q 2644 4219 2406 4219 
Q 1781 4219 1451 3797 
Q 1122 3375 1075 2522 
Q 1259 2794 1537 2939 
Q 1816 3084 2150 3084 
Q 2853 3084 3261 2657 
Q 3669 2231 3669 1497 
Q 3669 778 3244 343 
Q 2819 -91 2113 -91 
Q 1303 -91 875 529 
Q 447 1150 447 2328 
Q 447 3434 972 4092 
Q 1497 4750 2381 4750 
Q 2619 4750 2861 4703 
Q 3103 4656 3366 4563 
z
" id="DejaVuSans-36" transform="scale(0.015625)"/>
       </defs>
       <use xlink:href="#DejaVuSans-30"/>
       <use x="63.623047" xlink:href="#DejaVuSans-2e"/>
       <use x="95.410156" xlink:href="#DejaVuSans-36"/>
      </g>
     </g>
    </g>
    <g id="xtick_5">
     <g id="line2d_5">
      <g>
       <use style="stroke:#000000;stroke-width:0.8;" x="242.987114" xlink:href="#mab0a658ca2" y="224.64"/>
      </g>
     </g>
     <g id="text_5">
      <!-- 0.8 -->
      <g transform="translate(235.035552 239.238437)scale(0.1 -0.1)">
       <defs>
        <path d="M 2034 2216 
Q 1584 2216 1326 1975 
Q 1069 1734 1069 1313 
Q 1069 891 1326 650 
Q 1584 409 2034 409 
Q 2484 409 2743 651 
Q 3003 894 3003 1313 
Q 3003 1734 2745 1975 
Q 2488 2216 2034 2216 
z
M 1403 2484 
Q 997 2584 770 2862 
Q 544 3141 544 3541 
Q 544 4100 942 4425 
Q 1341 4750 2034 4750 
Q 2731 4750 3128 4425 
Q 3525 4100 3525 3541 
Q 3525 3141 3298 2862 
Q 3072 2584 2669 2484 
Q 3125 2378 3379 2068 
Q 3634 1759 3634 1313 
Q 3634 634 3220 271 
Q 2806 -91 2034 -91 
Q 1263 -91 848 271 
Q 434 634 434 1313 
Q 434 1759 690 2068 
Q 947 2378 1403 2484 
z
M 1172 3481 
Q 1172 3119 1398 2916 
Q 1625 2713 2034 2713 
Q 2441 2713 2670 2916 
Q 2900 3119 2900 3481 
Q 2900 3844 2670 4047 
Q 2441 4250 2034 4250 
Q 1625 4250 1398 4047 
Q 1172 3844 1172 3481 
z
" id="DejaVuSans-38" transform="scale(0.015625)"/>
       </defs>
       <use xlink:href="#DejaVuSans-30"/>
       <use x="63.623047" xlink:href="#DejaVuSans-2e"/>
       <use x="95.410156" xlink:href="#DejaVuSans-38"/>
      </g>
     </g>
    </g>
    <g id="xtick_6">
     <g id="line2d_6">
      <g>
       <use style="stroke:#000000;stroke-width:0.8;" x="289.018121" xlink:href="#mab0a658ca2" y="224.64"/>
      </g>
     </g>
     <g id="text_6">
      <!-- 1.0 -->
      <g transform="translate(281.066558 239.238437)scale(0.1 -0.1)">
       <defs>
        <path d="M 794 531 
L 1825 531 
L 1825 4091 
L 703 3866 
L 703 4441 
L 1819 4666 
L 2450 4666 
L 2450 531 
L 3481 531 
L 3481 0 
L 794 0 
L 794 531 
z
" id="DejaVuSans-31" transform="scale(0.015625)"/>
       </defs>
       <use xlink:href="#DejaVuSans-31"/>
       <use x="63.623047" xlink:href="#DejaVuSans-2e"/>
       <use x="95.410156" xlink:href="#DejaVuSans-30"/>
      </g>
     </g>
    </g>
    <g id="xtick_7">
     <g id="line2d_7">
      <g>
       <use style="stroke:#000000;stroke-width:0.8;" x="335.049127" xlink:href="#mab0a658ca2" y="224.64"/>
      </g>
     </g>
     <g id="text_7">
      <!-- 1.2 -->
      <g transform="translate(327.097565 239.238437)scale(0.1 -0.1)">
       <use xlink:href="#DejaVuSans-31"/>
       <use x="63.623047" xlink:href="#DejaVuSans-2e"/>
       <use x="95.410156" xlink:href="#DejaVuSans-32"/>
      </g>
     </g>
    </g>
   </g>
   <g id="matplotlib.axis_2">
    <g id="ytick_1">
     <g id="line2d_8">
      <defs>
       <path d="M 0 0 
L -3.5 0 
" id="m2e086ec29d" style="stroke:#000000;stroke-width:0.8;"/>
      </defs>
      <g>
       <use style="stroke:#000000;stroke-width:0.8;" x="38.482813" xlink:href="#m2e086ec29d" y="198.029259"/>
      </g>
     </g>
     <g id="text_8">
      <!-- −0.6 -->
      <g transform="translate(7.2 201.828477)scale(0.1 -0.1)">
       <defs>
        <path d="M 678 2272 
L 4684 2272 
L 4684 1741 
L 678 1741 
L 678 2272 
z
" id="DejaVuSans-2212" transform="scale(0.015625)"/>
       </defs>
       <use xlink:href="#DejaVuSans-2212"/>
       <use x="83.789062" xlink:href="#DejaVuSans-30"/>
       <use x="147.412109" xlink:href="#DejaVuSans-2e"/>
       <use x="179.199219" xlink:href="#DejaVuSans-36"/>
      </g>
     </g>
    </g>
    <g id="ytick_2">
     <g id="line2d_9">
      <g>
       <use style="stroke:#000000;stroke-width:0.8;" x="38.482813" xlink:href="#m2e086ec29d" y="170.659506"/>
      </g>
     </g>
     <g id="text_9">
      <!-- −0.4 -->
      <g transform="translate(7.2 174.458725)scale(0.1 -0.1)">
       <use xlink:href="#DejaVuSans-2212"/>
       <use x="83.789062" xlink:href="#DejaVuSans-30"/>
       <use x="147.412109" xlink:href="#DejaVuSans-2e"/>
       <use x="179.199219" xlink:href="#DejaVuSans-34"/>
      </g>
     </g>
    </g>
    <g id="ytick_3">
     <g id="line2d_10">
      <g>
       <use style="stroke:#000000;stroke-width:0.8;" x="38.482813" xlink:href="#m2e086ec29d" y="143.289753"/>
      </g>
     </g>
     <g id="text_10">
      <!-- −0.2 -->
      <g transform="translate(7.2 147.088972)scale(0.1 -0.1)">
       <use xlink:href="#DejaVuSans-2212"/>
       <use x="83.789062" xlink:href="#DejaVuSans-30"/>
       <use x="147.412109" xlink:href="#DejaVuSans-2e"/>
       <use x="179.199219" xlink:href="#DejaVuSans-32"/>
      </g>
     </g>
    </g>
    <g id="ytick_4">
     <g id="line2d_11">
      <g>
       <use style="stroke:#000000;stroke-width:0.8;" x="38.482813" xlink:href="#m2e086ec29d" y="115.92"/>
      </g>
     </g>
     <g id="text_11">
      <!-- 0.0 -->
      <g transform="translate(15.579688 119.719219)scale(0.1 -0.1)">
       <use xlink:href="#DejaVuSans-30"/>
       <use x="63.623047" xlink:href="#DejaVuSans-2e"/>
       <use x="95.410156" xlink:href="#DejaVuSans-30"/>
      </g>
     </g>
    </g>
    <g id="ytick_5">
     <g id="line2d_12">
      <g>
       <use style="stroke:#000000;stroke-width:0.8;" x="38.482813" xlink:href="#m2e086ec29d" y="88.550247"/>
      </g>
     </g>
     <g id="text_12">
      <!-- 0.2 -->
      <g transform="translate(15.579688 92.349466)scale(0.1 -0.1)">
       <use xlink:href="#DejaVuSans-30"/>
       <use x="63.623047" xlink:href="#DejaVuSans-2e"/>
       <use x="95.410156" xlink:href="#DejaVuSans-32"/>
      </g>
     </g>
    </g>
    <g id="ytick_6">
     <g id="line2d_13">
      <g>
       <use style="stroke:#000000;stroke-width:0.8;" x="38.482813" xlink:href="#m2e086ec29d" y="61.180494"/>
      </g>
     </g>
     <g id="text_13">
      <!-- 0.4 -->
      <g transform="translate(15.579688 64.979713)scale(0.1 -0.1)">
       <use xlink:href="#DejaVuSans-30"/>
       <use x="63.623047" xlink:href="#DejaVuSans-2e"/>
       <use x="95.410156" xlink:href="#DejaVuSans-34"/>
      </g>
     </g>
    </g>
    <g id="ytick_7">
     <g id="line2d_14">
      <g>
       <use style="stroke:#000000;stroke-width:0.8;" x="38.482813" xlink:href="#m2e086ec29d" y="33.810741"/>
      </g>
     </g>
     <g id="text_14">
      <!-- 0.6 -->
      <g transform="translate(15.579688 37.60996)scale(0.1 -0.1)">
       <use xlink:href="#DejaVuSans-30"/>
       <use x="63.623047" xlink:href="#DejaVuSans-2e"/>
       <use x="95.410156" xlink:href="#DejaVuSans-36"/>
      </g>
     </g>
    </g>
   </g>
   <g id="line2d_15">
    <defs>
     <path d="M 0 3 
C 0.795609 3 1.55874 2.683901 2.12132 2.12132 
C 2.683901 1.55874 3 0.795609 3 0 
C 3 -0.795609 2.683901 -1.55874 2.12132 -2.12132 
C 1.55874 -2.683901 0.795609 -3 0 -3 
C -0.795609 -3 -1.55874 -2.683901 -2.12132 -2.12132 
C -2.683901 -1.55874 -3 -0.795609 -3 0 
C -3 0.795609 -2.683901 1.55874 -2.12132 2.12132 
C -1.55874 2.683901 -0.795609 3 0 3 
z
" id="me7cdb707b5" style="stroke:#1f77b4;"/>
    </defs>
    <g clip-path="url(#pf4ed178432)">
     <use style="fill:#1f77b4;stroke:#1f77b4;" x="358.064631" xlink:href="#me7cdb707b5" y="115.92"/>
     <use style="fill:#1f77b4;stroke:#1f77b4;" x="351.248198" xlink:href="#me7cdb707b5" y="87.666562"/>
     <use style="fill:#1f77b4;stroke:#1f77b4;" x="331.431623" xlink:href="#me7cdb707b5" y="61.813895"/>
     <use style="fill:#1f77b4;stroke:#1f77b4;" x="300.449733" xlink:href="#me7cdb707b5" y="40.5288"/>
     <use style="fill:#1f77b4;stroke:#1f77b4;" x="261.155912" xlink:href="#me7cdb707b5" y="25.533891"/>
     <use style="fill:#1f77b4;stroke:#1f77b4;" x="217.137099" xlink:href="#me7cdb707b5" y="17.942411"/>
     <use style="fill:#1f77b4;stroke:#1f77b4;" x="172.356443" xlink:href="#me7cdb707b5" y="18.154794"/>
     <use style="fill:#1f77b4;stroke:#1f77b4;" x="130.760086" xlink:href="#me7cdb707b5" y="25.827311"/>
     <use style="fill:#1f77b4;stroke:#1f77b4;" x="95.888173" xlink:href="#me7cdb707b5" y="39.915791"/>
     <use style="fill:#1f77b4;stroke:#1f77b4;" x="70.529668" xlink:href="#me7cdb707b5" y="58.789679"/>
     <use style="fill:#1f77b4;stroke:#1f77b4;" x="56.456026" xlink:href="#me7cdb707b5" y="80.404541"/>
     <use style="fill:#1f77b4;stroke:#1f77b4;" x="54.260578" xlink:href="#me7cdb707b5" y="102.515131"/>
     <use style="fill:#1f77b4;stroke:#1f77b4;" x="63.319616" xlink:href="#me7cdb707b5" y="122.907013"/>
     <use style="fill:#1f77b4;stroke:#1f77b4;" x="81.878591" xlink:href="#me7cdb707b5" y="139.622901"/>
     <use style="fill:#1f77b4;stroke:#1f77b4;" x="107.253998" xlink:href="#me7cdb707b5" y="151.16045"/>
     <use style="fill:#1f77b4;stroke:#1f77b4;" x="136.129611" xlink:href="#me7cdb707b5" y="156.621236"/>
     <use style="fill:#1f77b4;stroke:#1f77b4;" x="164.916054" xlink:href="#me7cdb707b5" y="155.795741"/>
     <use style="fill:#1f77b4;stroke:#1f77b4;" x="190.136233" xlink:href="#me7cdb707b5" y="149.175788"/>
     <use style="fill:#1f77b4;stroke:#1f77b4;" x="208.796541" xlink:href="#me7cdb707b5" y="137.89338"/>
     <use style="fill:#1f77b4;stroke:#1f77b4;" x="218.705284" xlink:href="#me7cdb707b5" y="123.592518"/>
     <use style="fill:#1f77b4;stroke:#1f77b4;" x="218.705284" xlink:href="#me7cdb707b5" y="108.247482"/>
     <use style="fill:#1f77b4;stroke:#1f77b4;" x="208.796541" xlink:href="#me7cdb707b5" y="93.94662"/>
     <use style="fill:#1f77b4;stroke:#1f77b4;" x="190.136233" xlink:href="#me7cdb707b5" y="82.664212"/>
     <use style="fill:#1f77b4;stroke:#1f77b4;" x="164.916054" xlink:href="#me7cdb707b5" y="76.044259"/>
     <use style="fill:#1f77b4;stroke:#1f77b4;" x="136.129611" xlink:href="#me7cdb707b5" y="75.218764"/>
     <use style="fill:#1f77b4;stroke:#1f77b4;" x="107.253998" xlink:href="#me7cdb707b5" y="80.67955"/>
     <use style="fill:#1f77b4;stroke:#1f77b4;" x="81.878591" xlink:href="#me7cdb707b5" y="92.217099"/>
     <use style="fill:#1f77b4;stroke:#1f77b4;" x="63.319616" xlink:href="#me7cdb707b5" y="108.932987"/>
     <use style="fill:#1f77b4;stroke:#1f77b4;" x="54.260578" xlink:href="#me7cdb707b5" y="129.324869"/>
     <use style="fill:#1f77b4;stroke:#1f77b4;" x="56.456026" xlink:href="#me7cdb707b5" y="151.435459"/>
     <use style="fill:#1f77b4;stroke:#1f77b4;" x="70.529668" xlink:href="#me7cdb707b5" y="173.050321"/>
     <use style="fill:#1f77b4;stroke:#1f77b4;" x="95.888173" xlink:href="#me7cdb707b5" y="191.924209"/>
     <use style="fill:#1f77b4;stroke:#1f77b4;" x="130.760086" xlink:href="#me7cdb707b5" y="206.012689"/>
     <use style="fill:#1f77b4;stroke:#1f77b4;" x="172.356443" xlink:href="#me7cdb707b5" y="213.685206"/>
     <use style="fill:#1f77b4;stroke:#1f77b4;" x="217.137099" xlink:href="#me7cdb707b5" y="213.897589"/>
     <use style="fill:#1f77b4;stroke:#1f77b4;" x="261.155912" xlink:href="#me7cdb707b5" y="206.306109"/>
     <use style="fill:#1f77b4;stroke:#1f77b4;" x="300.449733" xlink:href="#me7cdb707b5" y="191.3112"/>
     <use style="fill:#1f77b4;stroke:#1f77b4;" x="331.431623" xlink:href="#me7cdb707b5" y="170.026105"/>
     <use style="fill:#1f77b4;stroke:#1f77b4;" x="351.248198" xlink:href="#me7cdb707b5" y="144.173438"/>
     <use style="fill:#1f77b4;stroke:#1f77b4;" x="358.064631" xlink:href="#me7cdb707b5" y="115.92"/>
    </g>
   </g>
   <g id="line2d_16">
    <path clip-path="url(#pf4ed178432)" d="M 358.064631 115.92 
L 357.034008 104.647233 
L 353.834715 93.535159 
L 348.565032 82.7215 
L 341.32324 72.343975 
L 332.20762 62.540305 
L 321.327378 53.444078 
L 308.846811 45.168049 
L 294.94792 37.81807 
L 279.828987 31.485086 
L 263.710306 26.239878 
L 246.816239 22.147294 
L 229.387145 19.243418 
L 211.669668 17.552798 
L 193.909947 17.083636 
L 176.35326 17.817035 
L 159.242895 19.728238 
L 142.806545 22.765494 
L 127.264189 26.863794 
L 112.82161 31.947016 
L 99.65561 37.916453 
L 87.935948 44.669211 
L 77.795254 52.087309 
L 69.343755 60.043668 
L 62.672782 68.407924 
L 57.826411 77.041671 
L 54.838378 85.805322 
L 53.700994 94.560347 
L 54.375948 103.169006 
L 56.809591 111.496902 
L 60.901783 119.420228 
L 66.541665 126.818012 
L 73.589328 133.583521 
L 81.878591 139.622901 
L 91.235771 144.849027 
L 101.460959 149.19983 
L 112.347412 152.620205 
L 123.68067 155.074545 
L 135.237742 156.548799 
L 146.796116 157.035748 
L 158.137913 156.557021 
L 169.046998 155.143695 
L 179.319414 152.84296 
L 188.767676 149.723804 
L 197.21051 145.859978 
L 204.498825 141.345773 
L 210.496504 136.28366 
L 215.090206 130.783388 
L 218.204353 124.96676 
L 219.772394 118.957255 
L 219.772394 112.882745 
L 218.204353 106.87324 
L 215.090206 101.056612 
L 210.496504 95.55634 
L 204.498825 90.494227 
L 197.21051 85.980022 
L 188.767676 82.116196 
L 179.319414 78.99704 
L 169.046998 76.696305 
L 158.137913 75.282979 
L 146.796116 74.804252 
L 135.237742 75.291201 
L 123.68067 76.765455 
L 112.347412 79.219795 
L 101.460959 82.64017 
L 91.235771 86.990973 
L 81.878591 92.217099 
L 73.589328 98.256479 
L 66.541665 105.021988 
L 60.901783 112.419772 
L 56.809591 120.343098 
L 54.375948 128.670994 
L 53.700994 137.279653 
L 54.838378 146.034678 
L 57.826411 154.798329 
L 62.672782 163.432076 
L 69.343755 171.796332 
L 77.795254 179.752691 
L 87.935948 187.170789 
L 99.65561 193.923547 
L 112.82161 199.892984 
L 127.264189 204.976206 
L 142.806545 209.074506 
L 159.242895 212.111762 
L 176.35326 214.022965 
L 193.909947 214.756364 
L 211.669668 214.287202 
L 229.387145 212.596582 
L 246.816239 209.692706 
L 263.710306 205.600122 
L 279.828987 200.354914 
L 294.94792 194.02193 
L 308.846811 186.671951 
L 321.327378 178.395922 
L 332.20762 169.299695 
L 341.32324 159.496025 
L 348.565032 149.1185 
L 353.834715 138.304841 
L 357.034008 127.192767 
L 358.064631 115.92 
" style="fill:none;stroke:#ff7f0e;stroke-linecap:square;stroke-width:1.5;"/>
   </g>
   <g id="patch_3">
    <path d="M 38.482813 224.64 
L 38.482813 7.2 
" style="fill:none;stroke:#000000;stroke-linecap:square;stroke-linejoin:miter;stroke-width:0.8;"/>
   </g>
   <g id="patch_4">
    <path d="M 373.282813 224.64 
L 373.282813 7.2 
" style="fill:none;stroke:#000000;stroke-linecap:square;stroke-linejoin:miter;stroke-width:0.8;"/>
   </g>
   <g id="patch_5">
    <path d="M 38.482813 224.64 
L 373.282813 224.64 
" style="fill:none;stroke:#000000;stroke-linecap:square;stroke-linejoin:miter;stroke-width:0.8;"/>
   </g>
   <g id="patch_6">
    <path d="M 38.482813 7.2 
L 373.282813 7.2 
" style="fill:none;stroke:#000000;stroke-linecap:square;stroke-linejoin:miter;stroke-width:0.8;"/>
   </g>
  </g>
 </g>
 <defs>
  <clipPath id="pf4ed178432">
   <rect height="217.44" width="334.8" x="38.482813" y="7.2"/>
  </clipPath>
 </defs>
</svg>
