<svg version="1.1" xmlns="http://www.w3.org/2000/svg" viewBox="0 0 1109.333366394043 255.66665649414062" width="1109.333366394043" height="255.66665649414062">
  <!-- svg-source:excalidraw -->
  
  <defs>
    <style>
      @font-face {
        font-family: "Virgil";
        src: url("https://excalidraw.com/Virgil.woff2");
      }
      @font-face {
        font-family: "Cascadia";
        src: url("https://excalidraw.com/Cascadia.woff2");
      }
    </style>
  </defs>
  <rect x="0" y="0" width="1109.333366394043" height="255.66665649414062" fill="#ffffff"></rect><g stroke-opacity="0.7" fill-opacity="0.7" stroke-linecap="round" transform="translate(444.00000762939453 28.000030517578125) rotate(0 61.66667175292969 91.33334350585938)"><path d="M62.13 1.77 L121.91 92.61 L60.56 183.02 L0.21 90.57" stroke="none" stroke-width="0" fill="#868e96" fill-rule="evenodd"></path><path d="M63.51 -0.76 C78.95 24.53, 93.9 51.02, 123.96 92.61 M121.67 92.27 C105.49 120.89, 84.96 148.09, 62.06 181.36 M62.19 181.41 C45 156.14, 24.62 131.46, -1.37 90.39 M0.45 90.32 C20.78 62, 40.04 32.73, 62.2 0.98" stroke="#000000" stroke-width="1.5" fill="none" stroke-dasharray="1.5 7"></path></g><g stroke-opacity="0.7" fill-opacity="0.7" stroke-linecap="round" transform="translate(513.3333511352539 49.333343505859375) rotate(0 103.33334350585938 82.33334350585938)"><path d="M105.77 -1.43 L207.28 81.56 L104.35 164.87 L-1.43 81.09" stroke="none" stroke-width="0" fill="#868e96" fill-rule="evenodd"></path><path d="M103.24 -0.01 C139.87 27.69, 178.78 59.72, 207.27 82.99 M206.93 83.54 C178.1 104.73, 147.71 130.64, 102.69 164.39 M102.74 166.01 C66.26 133.53, 29.41 103.54, -1.61 83.67 M-1.68 83.88 C40.95 50.26, 82.41 19.05, 104.98 0.13" stroke="#000000" stroke-width="1.5" fill="none" stroke-dasharray="1.5 7"></path></g><g stroke-linecap="round" transform="translate(435.33336639404297 186.3333740234375) rotate(0 4.3333282470703125 5)"><path d="M0.75 3.3 C0.75 3.3, 0.75 3.3, 0.75 3.3 M0.75 3.3 C0.75 3.3, 0.75 3.3, 0.75 3.3 M2.37 7.45 C4.14 5.92, 6.07 4.54, 7.32 2 M2.26 7.38 C4.28 5.16, 5.76 2.95, 7.25 1.84 M5.51 10.78 C6.87 8.73, 8.5 6.12, 10.07 5.83 M4.89 11.11 C5.49 9.77, 6.71 8.41, 9.39 5.71" stroke="#e64980" stroke-width="0.5" fill="none"></path><path d="M4.36 -0.01 C5.37 0.3, 6.93 1.24, 7.81 2.11 C8.69 2.98, 9.59 4.16, 9.62 5.22 C9.66 6.29, 8.92 7.6, 8.02 8.5 C7.12 9.41, 5.13 10.52, 4.22 10.65 C3.31 10.79, 3.23 10.07, 2.56 9.31 C1.89 8.55, 0.49 7.11, 0.21 6.08 C-0.07 5.06, 0.46 3.94, 0.87 3.16 C1.28 2.38, 1.96 1.85, 2.66 1.4 C3.36 0.95, 4.35 0.55, 5.09 0.46 C5.84 0.37, 6.92 0.67, 7.12 0.87 M2.79 0.39 C3.71 0.07, 5.57 0.97, 6.39 1.19 C7.21 1.42, 7.23 0.83, 7.72 1.76 C8.21 2.69, 9.55 5.56, 9.31 6.8 C9.06 8.03, 6.91 8.78, 6.24 9.18 C5.57 9.58, 6.07 9.12, 5.28 9.19 C4.5 9.25, 2.44 10.4, 1.52 9.57 C0.6 8.74, 0.02 5.42, -0.23 4.21 C-0.48 3, -0.72 2.82, 0.02 2.3 C0.75 1.77, 3.79 1.39, 4.18 1.08 C4.57 0.77, 2.7 0.34, 2.36 0.45" stroke="#c92a2a" stroke-width="1" fill="none"></path></g><g stroke-linecap="round" transform="translate(538.6667098999023 167.66668701171875) rotate(0 6.333343505859375 9)"><path d="M3.2 1.45 C3.2 1.45, 3.2 1.45, 3.2 1.45 M3.2 1.45 C3.2 1.45, 3.2 1.45, 3.2 1.45 M2.96 7.79 C4.78 5.67, 6.66 3.15, 8.79 1.35 M3.16 7.6 C3.76 6.43, 5.5 5.05, 7.97 1.9 M2.06 16.25 C5.14 10.64, 8.9 6.58, 11.43 3.2 M2.4 15.07 C5.84 11.84, 8.78 6.6, 12.61 3.11 M3.62 18.11 C6.94 16.23, 8.86 13.37, 12.58 8.49 M4.91 18.66 C6.73 16.68, 9.04 13.4, 13.15 7.53" stroke="#e64980" stroke-width="0.5" fill="none"></path><path d="M6.21 0.7 C7.47 0.62, 9.77 1.33, 10.92 2.68 C12.07 4.03, 12.89 6.88, 13.1 8.78 C13.32 10.68, 13.08 12.51, 12.2 14.1 C11.32 15.69, 9.22 17.71, 7.84 18.32 C6.45 18.93, 5.19 18.68, 3.9 17.75 C2.6 16.82, 0.51 14.65, 0.06 12.74 C-0.4 10.84, 0.7 8.12, 1.17 6.3 C1.64 4.48, 2.03 2.79, 2.87 1.82 C3.72 0.86, 5.49 0.74, 6.26 0.5 C7.03 0.26, 7.29 0.27, 7.48 0.39 M8.93 2.33 C9.91 3.22, 11.53 5.51, 11.96 7.04 C12.39 8.57, 11.86 10.03, 11.51 11.49 C11.17 12.95, 11.1 14.98, 9.91 15.8 C8.72 16.62, 5.61 16.77, 4.38 16.42 C3.16 16.08, 3.03 14.84, 2.54 13.73 C2.05 12.62, 1.9 11.2, 1.46 9.75 C1.02 8.29, -0.68 6.5, -0.11 4.99 C0.46 3.49, 3.34 1.38, 4.89 0.73 C6.44 0.08, 8.68 0.81, 9.2 1.12 C9.73 1.43, 7.97 2.69, 8.04 2.59" stroke="#c92a2a" stroke-width="1" fill="none"></path></g><g stroke-linecap="round" transform="translate(405.33336639404297 71.66671752929688) rotate(0 5.6666717529296875 7.666656494140625)"><path d="M1.11 2.29 C1.11 2.29, 1.11 2.29, 1.11 2.29 M1.11 2.29 C1.11 2.29, 1.11 2.29, 1.11 2.29 M0.25 9.44 C3.48 6.77, 3.62 4.05, 6.96 1.1 M0.63 8.47 C3.3 5.39, 5.71 2.68, 7.75 1.43 M3.39 13.21 C5.28 10.13, 8.77 6.66, 11.25 1.24 M2.33 13.9 C3.58 12.06, 5.52 9.12, 11.33 2.17 M5.36 14.41 C7.09 12.5, 10 9.9, 13 6.71 M5.96 14.95 C6.76 13.29, 8.42 12.29, 12.6 7.53" stroke="#e64980" stroke-width="0.5" fill="none"></path><path d="M5.78 0.36 C6.93 -0.17, 8.29 -0.28, 9.13 0.63 C9.98 1.54, 10.52 4.34, 10.85 5.84 C11.19 7.33, 11.51 8.13, 11.11 9.61 C10.72 11.09, 9.56 13.9, 8.48 14.72 C7.39 15.53, 5.95 14.94, 4.59 14.51 C3.23 14.07, 1.14 13.37, 0.3 12.11 C-0.55 10.84, -0.63 8.54, -0.49 6.9 C-0.36 5.26, -0.03 3.3, 1.13 2.26 C2.29 1.22, 5.4 0.94, 6.46 0.67 C7.52 0.4, 7.54 0.55, 7.49 0.63 M6.79 -0.92 C7.8 -0.66, 9.85 1.24, 10.84 2.83 C11.84 4.42, 13.11 6.99, 12.76 8.62 C12.42 10.26, 10.08 11.48, 8.77 12.65 C7.47 13.82, 6.03 15.61, 4.94 15.65 C3.85 15.69, 3.19 14.22, 2.23 12.91 C1.27 11.6, -0.55 9.38, -0.83 7.76 C-1.11 6.14, 0.01 4.17, 0.56 3.21 C1.1 2.25, 1.25 2.45, 2.45 2 C3.64 1.55, 7.11 0.7, 7.75 0.52 C8.39 0.34, 6.17 0.66, 6.29 0.92" stroke="#c92a2a" stroke-width="1" fill="none"></path></g><g stroke-linecap="round" transform="translate(696.6667098999023 50.3333740234375) rotate(0 6 5)"><path d="M1.4 1.22 C1.4 1.22, 1.4 1.22, 1.4 1.22 M1.4 1.22 C1.4 1.22, 1.4 1.22, 1.4 1.22 M0.86 8.16 C3.12 6.11, 3.51 4.67, 7.18 1.38 M1.24 7.48 C2.48 5.36, 4.21 3.48, 6.61 1.75 M3.73 10.4 C5.07 8.76, 7.95 5.87, 10.5 1.66 M3 11.1 C5.23 8.35, 7.7 6.08, 11.11 2.2 M8.4 11.87 C9.45 11.24, 10.51 10.27, 12.22 7.04 M7.55 12.31 C9.42 9.95, 11.06 8.04, 12.35 6.89" stroke="#e64980" stroke-width="0.5" fill="none"></path><path d="M4.59 -0.29 C5.98 -0.33, 8.33 0.65, 9.64 1.29 C10.95 1.93, 12.03 2.6, 12.44 3.56 C12.85 4.51, 12.57 5.95, 12.12 7.01 C11.67 8.08, 10.92 9.54, 9.74 9.95 C8.57 10.36, 6.59 9.73, 5.06 9.49 C3.54 9.25, 1.53 9.08, 0.6 8.51 C-0.34 7.95, -0.66 7.27, -0.55 6.09 C-0.45 4.91, 0.36 2.53, 1.21 1.43 C2.06 0.33, 3.84 -0.31, 4.56 -0.52 C5.28 -0.72, 5.5 0.12, 5.51 0.2 M2.1 2.03 C3.22 1.65, 6.34 0.19, 7.6 0.24 C8.85 0.3, 8.7 1.36, 9.63 2.35 C10.55 3.35, 13.17 5.01, 13.16 6.21 C13.15 7.42, 10.54 9.14, 9.58 9.56 C8.63 9.97, 8.61 8.75, 7.42 8.72 C6.23 8.68, 3.45 9.67, 2.45 9.37 C1.44 9.06, 1.72 8.08, 1.39 6.89 C1.07 5.71, 0.16 3.5, 0.5 2.26 C0.85 1.02, 3.06 -0.22, 3.46 -0.57 C3.87 -0.91, 2.94 -0.07, 2.93 0.21" stroke="#c92a2a" stroke-width="1" fill="none"></path></g><g stroke-linecap="round" transform="translate(542.6667098999023 51.666717529296875) rotate(0 7.666656494140625 7.3333282470703125)"><path d="M1.77 2.87 C1.77 2.87, 1.77 2.87, 1.77 2.87 M1.77 2.87 C1.77 2.87, 1.77 2.87, 1.77 2.87 M1.68 9.41 C2.73 7.28, 4.07 5.59, 7.87 2.52 M2 8.22 C3.57 6.8, 4.64 5.67, 7.72 2.01 M2.25 12.35 C4.36 12.39, 6.67 9.92, 13.82 3.11 M3.76 12.79 C6.6 8.35, 11.34 4.21, 12.6 1.57 M7.82 16.06 C9.9 13.83, 10.23 10.75, 14.86 6.72 M7.54 15.4 C10.54 11.78, 12.94 8, 14.81 6.08" stroke="#e64980" stroke-width="0.5" fill="none"></path><path d="M6.63 0.22 C8.26 0.04, 10.98 0.2, 12.29 0.94 C13.61 1.68, 14.14 3.15, 14.5 4.68 C14.85 6.2, 15.2 8.36, 14.44 10.08 C13.68 11.81, 11.41 14.31, 9.95 15.04 C8.49 15.77, 7.24 15.01, 5.67 14.44 C4.09 13.87, 1.31 12.84, 0.51 11.63 C-0.3 10.41, 0.61 8.62, 0.83 7.15 C1.05 5.67, 0.47 4.1, 1.85 2.78 C3.22 1.47, 7.75 -0.41, 9.07 -0.77 C10.38 -1.14, 9.73 0.29, 9.76 0.6 M6.63 -0.38 C8.26 -0.51, 10.78 0.43, 12.23 1.62 C13.68 2.81, 15.14 5.15, 15.32 6.76 C15.51 8.37, 14.36 10.21, 13.34 11.28 C12.31 12.36, 10.39 12.78, 9.16 13.22 C7.93 13.66, 7.26 14.42, 5.96 13.93 C4.66 13.44, 2.47 11.42, 1.35 10.29 C0.23 9.15, -1.21 8.5, -0.76 7.11 C-0.32 5.72, 2.82 3.22, 4.02 1.94 C5.21 0.65, 5.88 -0.3, 6.39 -0.61 C6.9 -0.92, 6.65 -0.09, 7.09 0.09" stroke="#c92a2a" stroke-width="1" fill="none"></path></g><g stroke-linecap="round"><g transform="translate(417.33333587646484 72.33334350585938) rotate(0 63.103128040581964 -26.22275055721404)"><path d="M-0.76 -1.18 C13.41 -9.58, 64.31 -48.32, 85.6 -51.27 C106.89 -54.22, 119.95 -23.87, 126.97 -18.86" stroke="#e67700" stroke-width="1.5" fill="none" stroke-dasharray="8 9"></path></g></g><g stroke-linecap="round"><g transform="translate(414.0000228881836 72.33334350585938) rotate(0 142.09861266538502 -26.73258054181933)"><path d="M-0.39 -1.08 C15.77 -9.7, 48.35 -49.29, 95.84 -52.39 C143.34 -55.49, 253.05 -25.08, 284.59 -19.68" stroke="#e67700" stroke-width="1.5" fill="none" stroke-dasharray="8 9"></path></g></g><g stroke-linecap="round"><g transform="translate(416.6666793823242 81.00003051757812) rotate(0 11.183138728886888 53.04405292198064)"><path d="M-1 -1.18 C3.03 16.51, 19.22 89.11, 23.37 107.27" stroke="#e67700" stroke-width="1.5" fill="none" stroke-dasharray="8 9"></path></g></g><g stroke-linecap="round"><g transform="translate(410.0000228881836 85.66668701171875) rotate(0 67.41144406720997 65.48448871777654)"><path d="M1.06 1.11 C16.87 22.24, 71.79 111.9, 93.91 127.02 C116.02 142.13, 127.19 97.46, 133.76 91.81" stroke="#e67700" stroke-width="1.5" fill="none" stroke-dasharray="8 9"></path></g></g><g stroke-opacity="0.7" fill-opacity="0.7" stroke-linecap="round" transform="translate(48.66664123535156 24.833351135253906) rotate(0 61.66667175292966 91.33334350585938)"><path d="M63.41 1.38 L121.98 92.81 L63.56 183.02 L1.12 92.14" stroke="none" stroke-width="0" fill="#868e96" fill-rule="evenodd"></path><path d="M62.71 -0.6 C80.73 25.36, 97.19 54.09, 121.91 92.4 M121.68 92.5 C111.12 110.09, 96.87 127.98, 60.76 181.44 M60.45 183.1 C49.16 163.49, 35.28 143.84, -1.83 92.39 M-1.3 93.98 C20.82 60.8, 42.54 31.05, 62.06 -1.47" stroke="#000000" stroke-width="1.5" fill="none" stroke-dasharray="1.5 7"></path></g><g stroke-opacity="0.7" fill-opacity="0.7" stroke-linecap="round" transform="translate(117.99998474121094 46.166664123535156) rotate(0 103.33334350585938 82.33334350585938)"><path d="M105.38 -1.35 L207.48 84.56 L104.35 165.78 L0.14 81.9" stroke="none" stroke-width="0" fill="#868e96" fill-rule="evenodd"></path><path d="M103.4 0.6 C134.1 24.05, 167.16 49.04, 207.06 81.12 M207.17 84.06 C182.51 100.43, 158.04 118.57, 102.77 162.88 M104.44 165.41 C66.39 134.51, 28.57 103.5, 0.39 83.69 M1.98 82.65 C25.9 63.28, 53.28 41.66, 102.53 1.41" stroke="#000000" stroke-width="1.5" fill="none" stroke-dasharray="1.5 7"></path></g><g stroke-linecap="round" transform="translate(40 183.16669464111328) rotate(0 4.3333282470703125 5)"><path d="M-0.03 2.62 C-0.03 2.62, -0.03 2.62, -0.03 2.62 M-0.03 2.62 C-0.03 2.62, -0.03 2.62, -0.03 2.62 M1.31 6.34 C2.29 4.82, 3.67 4.47, 6.24 2.04 M1.84 6.86 C2.59 5.36, 4.33 3.98, 6.23 1.32 M3.79 10.94 C5.88 7.85, 7.07 5.67, 10.6 3.03 M3.78 9.9 C5.57 7.93, 7.28 6.24, 10.12 3.58" stroke="#e64980" stroke-width="0.5" fill="none"></path><path d="M1.97 0.58 C2.69 0.01, 3.6 -0.61, 4.7 -0.46 C5.8 -0.31, 7.86 0.38, 8.56 1.49 C9.26 2.59, 9.17 5.03, 8.88 6.18 C8.58 7.34, 7.66 7.88, 6.79 8.41 C5.91 8.94, 4.6 9.43, 3.65 9.38 C2.69 9.32, 1.57 8.59, 1.08 8.07 C0.59 7.55, 0.91 7.12, 0.69 6.26 C0.46 5.4, -0.78 3.94, -0.29 2.91 C0.21 1.87, 2.97 0.57, 3.67 0.05 C4.37 -0.48, 4.1 -0.39, 3.9 -0.26 M4.1 1.56 C5.05 1.59, 6.55 0.87, 7.39 1.52 C8.23 2.18, 9.09 4.57, 9.14 5.5 C9.2 6.43, 8.2 6.19, 7.7 7.1 C7.2 8.01, 7.24 10.49, 6.15 10.96 C5.06 11.43, 1.95 10.61, 1.16 9.95 C0.38 9.28, 1.44 8.07, 1.43 6.98 C1.42 5.89, 1.11 4.26, 1.09 3.4 C1.08 2.54, 0.62 2.41, 1.34 1.83 C2.06 1.25, 4.71 0.12, 5.41 -0.08 C6.11 -0.28, 5.47 0.42, 5.52 0.62" stroke="#c92a2a" stroke-width="1" fill="none"></path></g><g stroke-linecap="round" transform="translate(143.33334350585938 164.50000762939453) rotate(0 6.333343505859375 9)"><path d="M5.13 -0.84 C5.13 -0.84, 5.13 -0.84, 5.13 -0.84 M5.13 -0.84 C5.13 -0.84, 5.13 -0.84, 5.13 -0.84 M0.28 9.11 C1.7 7.54, 4.95 6.33, 9.04 1.28 M1.09 9.72 C3.29 7.77, 5.67 4.36, 7.91 1.64 M2.58 16.04 C3.21 12.47, 5.27 10.93, 10.03 5.09 M0.96 15.4 C3.79 12.2, 7.08 9.63, 10.89 5.27 M4.23 17.91 C7.62 15.57, 10.14 12.24, 14.04 8.62 M5.09 17.01 C6.94 15.51, 9.12 11.86, 13.13 7.83" stroke="#e64980" stroke-width="0.5" fill="none"></path><path d="M4.97 -0.66 C6.07 -1.01, 7.33 0.43, 8.38 1.46 C9.44 2.49, 10.51 3.96, 11.28 5.54 C12.04 7.13, 13.24 9.29, 12.96 10.96 C12.69 12.63, 10.94 14.49, 9.63 15.56 C8.32 16.62, 6.54 17.29, 5.09 17.34 C3.63 17.39, 1.72 17.28, 0.91 15.87 C0.09 14.46, 0.11 10.86, 0.19 8.9 C0.28 6.94, 0.6 5.59, 1.41 4.12 C2.22 2.66, 4.42 0.92, 5.04 0.12 C5.67 -0.68, 5.09 -0.88, 5.16 -0.66 M6.36 -0.02 C7.52 -0.31, 7.87 0.52, 8.92 1.43 C9.97 2.35, 12.27 3.61, 12.66 5.48 C13.06 7.35, 11.6 10.97, 11.3 12.64 C10.99 14.31, 11.7 14.43, 10.85 15.51 C10 16.58, 7.69 19.02, 6.21 19.11 C4.73 19.19, 3.01 17.75, 1.99 16.01 C0.97 14.28, 0.04 10.71, 0.11 8.7 C0.18 6.69, 1.64 5.29, 2.41 3.96 C3.18 2.63, 4.23 1.17, 4.72 0.7 C5.21 0.23, 5.2 1.17, 5.35 1.13" stroke="#c92a2a" stroke-width="1" fill="none"></path></g><g stroke-linecap="round" transform="translate(10 68.50003814697266) rotate(0 5.6666717529296875 7.666656494140625)"><path d="M2.21 1.92 C2.21 1.92, 2.21 1.92, 2.21 1.92 M2.21 1.92 C2.21 1.92, 2.21 1.92, 2.21 1.92 M1.15 7.57 C2.83 7.29, 4.81 5.79, 7.44 1.87 M1.65 8.24 C4.06 6.21, 5.28 4.18, 7.74 1.42 M3.31 12.56 C5.48 8.75, 9.68 6.17, 12.11 2.7 M2.67 12.96 C6.16 9.52, 10.26 5.68, 12.29 2.2 M7.52 14.69 C9.1 13.2, 10.07 11, 13.09 8.1 M6.97 14.09 C9.55 11.87, 10.8 9.86, 12.6 8.23" stroke="#e64980" stroke-width="0.5" fill="none"></path><path d="M4.82 -0.69 C6.19 -0.94, 8.83 -0.24, 9.95 1.04 C11.06 2.33, 11.49 5.27, 11.51 6.99 C11.53 8.7, 10.87 10.11, 10.05 11.33 C9.24 12.55, 7.81 13.86, 6.64 14.29 C5.47 14.73, 3.92 14.39, 3.03 13.93 C2.14 13.48, 1.92 12.82, 1.3 11.57 C0.68 10.32, -0.87 8.09, -0.67 6.43 C-0.48 4.77, 1.34 2.75, 2.47 1.62 C3.6 0.49, 5.57 -0.15, 6.09 -0.35 C6.61 -0.55, 5.52 0.32, 5.58 0.43 M5.81 -0.24 C7.21 -0.38, 9.16 1.67, 10.09 2.67 C11.01 3.68, 11.12 4.05, 11.35 5.77 C11.57 7.49, 12.28 11.36, 11.42 13 C10.56 14.65, 7.36 15.33, 6.21 15.65 C5.06 15.97, 5.32 15.68, 4.52 14.93 C3.72 14.17, 2.27 12.45, 1.41 11.12 C0.54 9.79, -0.86 8.59, -0.65 6.95 C-0.44 5.32, 1.48 2.38, 2.68 1.3 C3.87 0.22, 5.84 0.56, 6.53 0.47 C7.21 0.38, 6.97 0.59, 6.78 0.75" stroke="#c92a2a" stroke-width="1" fill="none"></path></g><g stroke-linecap="round" transform="translate(301.3333435058594 47.16669464111328) rotate(0 6 5)"><path d="M0.97 2.16 C0.97 2.16, 0.97 2.16, 0.97 2.16 M0.97 2.16 C0.97 2.16, 0.97 2.16, 0.97 2.16 M0.62 7.23 C3.45 6.14, 5.06 4.08, 7.61 0.92 M1.29 8.25 C3.27 5.43, 5.27 2.99, 7.16 1.04 M3.87 10.15 C5.38 8.96, 7.86 5.84, 11.65 2.97 M4.18 10.15 C6.36 8.67, 8.22 6.52, 11.25 2.15" stroke="#e64980" stroke-width="0.5" fill="none"></path><path d="M3.22 0.88 C4.17 0.67, 5.78 0.36, 7.19 0.54 C8.61 0.73, 10.97 1.26, 11.71 2 C12.45 2.74, 12.05 3.93, 11.64 4.96 C11.23 6, 10.35 7.26, 9.26 8.2 C8.18 9.13, 6.29 10.6, 5.14 10.58 C3.99 10.56, 3.15 8.79, 2.35 8.07 C1.54 7.35, 0.59 7.2, 0.32 6.27 C0.04 5.34, 0.04 3.66, 0.69 2.48 C1.34 1.31, 3.4 -0.44, 4.2 -0.78 C5 -1.11, 5.46 0.22, 5.47 0.48 M3.83 0.74 C4.8 0.4, 7.65 -0.1, 8.7 0.39 C9.76 0.88, 9.46 2.9, 10.16 3.66 C10.87 4.43, 12.89 3.91, 12.92 4.97 C12.95 6.04, 11.49 9.1, 10.36 10.07 C9.22 11.05, 7.49 11.19, 6.12 10.84 C4.75 10.48, 2.95 8.72, 2.14 7.93 C1.32 7.14, 1.46 6.93, 1.22 6.08 C0.99 5.24, 0.17 3.7, 0.72 2.85 C1.27 2, 3.87 1.5, 4.53 0.98 C5.2 0.45, 4.64 -0.04, 4.7 -0.3" stroke="#c92a2a" stroke-width="1" fill="none"></path></g><g stroke-linecap="round" transform="translate(147.33334350585938 48.500038146972656) rotate(0 7.666656494140625 7.3333282470703125)"><path d="M2.98 1.27 C2.98 1.27, 2.98 1.27, 2.98 1.27 M2.98 1.27 C2.98 1.27, 2.98 1.27, 2.98 1.27 M-0.87 11.66 C2.51 9.26, 4.26 5.88, 9.77 0.1 M0.83 10.48 C3.33 6.65, 6.47 3.07, 9.99 -0.84 M2.73 12.09 C8.02 8.43, 10.68 4.6, 14.1 1.13 M2.73 13.57 C5.92 10.94, 8.17 7.25, 12.98 2.33 M7.16 16.37 C8.26 13.14, 12.08 9.72, 16.65 3.48 M7.39 14.58 C9.37 11.48, 12.7 8.51, 15.28 4.79" stroke="#e64980" stroke-width="0.5" fill="none"></path><path d="M9 -0.79 C10.76 -0.53, 12.43 1.53, 13.4 2.74 C14.38 3.96, 14.9 5.13, 14.84 6.51 C14.77 7.88, 14 9.82, 13.02 10.99 C12.04 12.16, 10.3 13.02, 8.95 13.54 C7.6 14.07, 6.43 14.61, 4.93 14.12 C3.42 13.62, 0.62 12.05, -0.1 10.57 C-0.81 9.09, 0.09 6.86, 0.66 5.25 C1.23 3.64, 2.08 1.72, 3.3 0.9 C4.53 0.07, 6.94 0.47, 8.01 0.29 C9.08 0.12, 9.58 -0.11, 9.73 -0.13 M11.79 1.4 C13.26 1.88, 14.14 1.98, 14.84 3.53 C15.54 5.07, 16.7 8.91, 16 10.68 C15.31 12.46, 12.06 13.49, 10.67 14.19 C9.29 14.88, 9.03 15.16, 7.72 14.85 C6.4 14.54, 4.19 13.33, 2.77 12.31 C1.35 11.28, -0.69 10.31, -0.82 8.7 C-0.95 7.08, 0.76 3.97, 1.99 2.62 C3.22 1.28, 4.9 0.79, 6.58 0.6 C8.25 0.41, 11.36 1.29, 12.02 1.46 C12.69 1.64, 10.98 1.43, 10.59 1.66" stroke="#c92a2a" stroke-width="1" fill="none"></path></g><g stroke-linecap="round" transform="translate(835.6666793823242 101.33334350585938) rotate(0 6 5)"><path d="M-0.32 3.7 C-0.32 3.7, -0.32 3.7, -0.32 3.7 M-0.32 3.7 C-0.32 3.7, -0.32 3.7, -0.32 3.7 M0.28 9.43 C3.05 6.13, 6.01 3.63, 9.03 -0.2 M0.91 9.06 C2.51 5.86, 5.67 3.78, 8.23 0.51 M4.2 9.15 C6.48 8.08, 7.1 5.32, 11.12 2.39 M5.08 9.91 C7.43 7.62, 9.29 4.96, 11.41 1.82" stroke="#e64980" stroke-width="0.5" fill="none"></path><path d="M6.87 -0.4 C8.35 -0.58, 9.93 -0.05, 10.69 0.83 C11.44 1.72, 11.23 3.82, 11.39 4.88 C11.55 5.95, 12.32 6.35, 11.66 7.22 C11 8.08, 8.64 9.69, 7.45 10.06 C6.25 10.43, 5.68 9.8, 4.49 9.46 C3.3 9.12, 1.07 9.07, 0.32 8.05 C-0.43 7.03, -0.32 4.42, -0.01 3.34 C0.3 2.25, 1.03 2.22, 2.18 1.55 C3.34 0.88, 5.78 -0.43, 6.93 -0.69 C8.08 -0.95, 9.1 -0.25, 9.09 0 M1.95 1.61 C2.92 1.05, 5.33 1.24, 6.93 1.41 C8.53 1.58, 10.5 2.16, 11.53 2.62 C12.56 3.07, 13.11 2.98, 13.1 4.16 C13.09 5.34, 12.54 8.5, 11.5 9.71 C10.45 10.92, 8.32 11.43, 6.85 11.42 C5.39 11.41, 3.9 10.66, 2.7 9.64 C1.49 8.63, -0.08 6.29, -0.38 5.32 C-0.68 4.36, 0.26 4.65, 0.88 3.85 C1.49 3.05, 2.98 1.28, 3.29 0.53 C3.61 -0.23, 2.96 -0.71, 2.77 -0.65" stroke="#c92a2a" stroke-width="1" fill="none"></path></g><g stroke-linecap="round" transform="translate(949.333366394043 65.66665649414062) rotate(0 6 5)"><path d="M2.72 -0.29 C2.72 -0.29, 2.72 -0.29, 2.72 -0.29 M2.72 -0.29 C2.72 -0.29, 2.72 -0.29, 2.72 -0.29 M1.71 7.23 C4.19 5.1, 6.84 1.67, 7.75 -0.36 M1.42 6.73 C4.26 4.67, 6.17 2.21, 7.39 0.32 M3.45 11.08 C4.19 8.09, 6.33 7.49, 10.71 2.36 M3.93 11.16 C5.69 8.53, 7.01 6.3, 10.58 3.24" stroke="#e64980" stroke-width="0.5" fill="none"></path><path d="M7.91 -0.31 C8.92 0, 9.38 1.68, 10.15 2.52 C10.92 3.36, 12.56 3.72, 12.53 4.74 C12.51 5.76, 10.85 7.8, 10.02 8.63 C9.2 9.47, 8.83 9.53, 7.57 9.75 C6.31 9.96, 3.68 10.55, 2.45 9.91 C1.22 9.27, 0.54 6.96, 0.19 5.91 C-0.16 4.86, -0.07 4.64, 0.34 3.62 C0.76 2.6, 1.37 0.46, 2.65 -0.22 C3.94 -0.89, 7.24 -0.56, 8.03 -0.43 C8.83 -0.3, 7.69 0.36, 7.42 0.54 M8.49 1.89 C9.94 2.26, 11.64 3.22, 12.36 3.82 C13.08 4.43, 13.16 4.4, 12.8 5.52 C12.45 6.65, 11.48 9.61, 10.21 10.59 C8.95 11.58, 6.65 11.72, 5.19 11.41 C3.72 11.1, 2.4 9.99, 1.43 8.74 C0.45 7.5, -0.71 4.97, -0.66 3.95 C-0.61 2.94, 0.8 3.3, 1.72 2.65 C2.64 2.01, 3.76 0.62, 4.86 0.06 C5.97 -0.5, 7.91 -0.8, 8.34 -0.71 C8.77 -0.63, 7.45 0.42, 7.45 0.55" stroke="#c92a2a" stroke-width="1" fill="none"></path></g><g stroke-linecap="round" transform="translate(1087.333366394043 72.33334350585938) rotate(0 6 5)"><path d="M2.59 0.93 C2.59 0.93, 2.59 0.93, 2.59 0.93 M2.59 0.93 C2.59 0.93, 2.59 0.93, 2.59 0.93 M2.03 7.54 C3.28 6.25, 3.57 4.21, 7.36 0.81 M1.77 7.65 C3.68 5.35, 5.93 3.62, 8.48 0.71 M4.68 10.51 C6.66 6.6, 9.57 4.45, 11.77 3.42 M4.7 10.45 C7.37 8.11, 8.83 5.13, 12.03 2.1" stroke="#e64980" stroke-width="0.5" fill="none"></path><path d="M7.15 -0.14 C8.49 -0.18, 9.38 -0.52, 10.25 0.37 C11.12 1.26, 12.2 4.1, 12.36 5.19 C12.53 6.28, 11.98 6.01, 11.26 6.91 C10.53 7.81, 9.37 10.21, 8.01 10.59 C6.65 10.96, 4.43 9.83, 3.09 9.17 C1.76 8.51, 0.41 7.39, -0.01 6.63 C-0.42 5.87, 0.12 5.61, 0.6 4.61 C1.08 3.6, 1.59 1.36, 2.88 0.6 C4.16 -0.16, 7.28 0.01, 8.3 0.07 C9.33 0.13, 9.08 0.7, 9.05 0.96 M5.48 0.61 C6.86 0.23, 9.13 -1.35, 10.07 -0.71 C11 -0.07, 10.7 3.1, 11.11 4.42 C11.53 5.75, 12.77 6.63, 12.56 7.26 C12.35 7.88, 10.93 7.9, 9.85 8.18 C8.77 8.45, 7.64 9, 6.05 8.9 C4.46 8.8, 1.31 8.15, 0.29 7.56 C-0.73 6.97, 0.01 6.5, -0.07 5.33 C-0.15 4.16, -0.85 1.35, -0.18 0.54 C0.48 -0.26, 3.12 0.61, 3.94 0.48 C4.75 0.35, 4.66 -0.28, 4.7 -0.24" stroke="#c92a2a" stroke-width="1" fill="none"></path></g><g stroke-linecap="round" transform="translate(908.6666793823242 181.33334350585938) rotate(0 6 5)"><path d="M0.39 1.67 C0.39 1.67, 0.39 1.67, 0.39 1.67 M0.39 1.67 C0.39 1.67, 0.39 1.67, 0.39 1.67 M0.82 6.9 C3.12 5.22, 4.66 3.84, 5.38 0.98 M1.16 6.28 C2.9 4.97, 4.52 3.47, 5.94 1.44 M3.19 9.91 C4.68 8.18, 7.25 4.61, 10.9 1.39 M3.01 11.13 C5.55 8.61, 6.43 5.94, 10.67 1.41 M8.05 12.62 C8.57 10.31, 10.49 8.73, 14.72 4.12 M7.78 11.67 C8.67 10.03, 10.97 7.93, 13.59 4.19" stroke="#e64980" stroke-width="0.5" fill="none"></path><path d="M5.15 0.84 C6.52 0.6, 8.07 -0.2, 9.27 0.15 C10.46 0.51, 11.83 1.87, 12.31 2.99 C12.79 4.1, 12.52 5.63, 12.13 6.84 C11.73 8.04, 11.18 9.67, 9.95 10.2 C8.73 10.73, 6.26 10.23, 4.78 10.01 C3.3 9.79, 1.83 9.56, 1.09 8.9 C0.35 8.25, 0.45 7.29, 0.33 6.09 C0.21 4.88, -0.58 2.59, 0.39 1.67 C1.37 0.76, 5.18 0.78, 6.17 0.59 C7.17 0.4, 6.63 0.43, 6.38 0.52 M3.85 0.42 C4.95 -0.1, 5.51 -1.52, 6.61 -1.12 C7.71 -0.72, 9.55 1.76, 10.43 2.84 C11.31 3.93, 12.09 4.38, 11.89 5.39 C11.7 6.4, 10.14 7.92, 9.26 8.88 C8.39 9.84, 7.76 11.03, 6.65 11.17 C5.54 11.3, 3.83 10.68, 2.61 9.7 C1.39 8.71, -0.2 6.5, -0.67 5.25 C-1.14 3.99, -1.21 3.17, -0.2 2.14 C0.82 1.12, 4.71 -0.72, 5.42 -0.92 C6.13 -1.12, 4.46 0.53, 4.09 0.95" stroke="#c92a2a" stroke-width="1" fill="none"></path></g><g stroke-linecap="round" transform="translate(1018.0000534057617 157.33334350585938) rotate(0 6 5)"><path d="M-0.27 3.74 C-0.27 3.74, -0.27 3.74, -0.27 3.74 M-0.27 3.74 C-0.27 3.74, -0.27 3.74, -0.27 3.74 M1.23 8.54 C3.62 6.48, 3.49 4.17, 6.81 0.75 M1.69 8.24 C2.6 6.42, 4.16 4.91, 7.65 1.02 M5.66 9.5 C5.74 8.25, 8.37 6.21, 10.21 2.84 M5.09 9.7 C6.92 7.78, 8.88 5.15, 11.11 2.54" stroke="#e64980" stroke-width="0.5" fill="none"></path><path d="M3.26 0.24 C4.33 -0.31, 5.61 -0.25, 6.94 0.17 C8.26 0.59, 10.32 1.82, 11.21 2.77 C12.1 3.71, 12.52 4.96, 12.29 5.83 C12.07 6.7, 10.92 7.33, 9.88 7.98 C8.85 8.63, 7.1 9.65, 6.08 9.71 C5.05 9.78, 4.69 8.86, 3.73 8.38 C2.77 7.89, 0.99 7.63, 0.34 6.83 C-0.3 6.03, -0.59 4.66, -0.14 3.6 C0.31 2.54, 2.43 0.93, 3.04 0.49 C3.65 0.04, 3.33 1, 3.52 0.94 M4.49 0.3 C5.9 0.28, 8.86 -0.34, 10.13 0.19 C11.4 0.73, 12.14 2.49, 12.12 3.48 C12.1 4.48, 10.88 5.07, 10.03 6.15 C9.19 7.24, 8 9.46, 7.05 10.02 C6.1 10.57, 5.36 9.79, 4.32 9.46 C3.28 9.12, 1.72 8.85, 0.79 8 C-0.14 7.15, -1.23 5.36, -1.26 4.38 C-1.3 3.39, -0.65 2.7, 0.56 2.09 C1.78 1.48, 5.08 0.84, 6.03 0.74 C6.97 0.64, 6.5 1.63, 6.21 1.49" stroke="#c92a2a" stroke-width="1" fill="none"></path></g><g transform="translate(399.33333587646484 145.33334350585938) rotate(0 7.5 12.5)"><text x="0" y="18" font-family="Virgil, Segoe UI Emoji" font-size="20px" fill="#e67700" text-anchor="start" style="white-space: pre;" direction="ltr">3</text></g><g transform="translate(494.6666793823242 220.66665649414062) rotate(0 6.5 12.5)"><text x="0" y="18" font-family="Virgil, Segoe UI Emoji" font-size="20px" fill="#e67700" text-anchor="start" style="white-space: pre;" direction="ltr">5</text></g><g transform="translate(436.6666793823242 22.666656494140625) rotate(0 7 12.5)"><text x="0" y="18" font-family="Virgil, Segoe UI Emoji" font-size="20px" fill="#e67700" text-anchor="start" style="white-space: pre;" direction="ltr">4</text></g><g transform="translate(615.9999923706055 10) rotate(0 7 12.5)"><text x="0" y="18" font-family="Virgil, Segoe UI Emoji" font-size="20px" fill="#e67700" text-anchor="start" style="white-space: pre;" direction="ltr">6</text></g><g stroke-linecap="round"><g transform="translate(846.6666793823242 109.66665649414062) rotate(0 33.51287163421512 36.65102653577924)"><path d="M0.59 0.43 C11.56 12.53, 55.73 60.61, 66.44 72.87" stroke="#e67700" stroke-width="1.5" fill="none" stroke-dasharray="8 9"></path></g></g><g stroke-linecap="round"><g transform="translate(843.9999923706055 106.33334350585938) rotate(0 88.02355187013745 26.58128031417729)"><path d="M0.7 -0.48 C30 8.59, 146.43 44.74, 175.35 53.65" stroke="#e67700" stroke-width="1.5" fill="none" stroke-dasharray="8 9"></path></g></g><g stroke-linecap="round"><g transform="translate(843.333366394043 103.66665649414062) rotate(0 55.991831517964556 -14.809753239899862)"><path d="M0.04 0.46 C18.66 -4.37, 93.4 -24.85, 111.94 -30.08" stroke="#e67700" stroke-width="1.5" fill="none" stroke-dasharray="8 9"></path></g></g><g stroke-linecap="round"><g transform="translate(839.9999923706055 106.33334350585938) rotate(0 127.03274596855044 -15.30143828317523)"><path d="M0.41 -0.3 C42.69 -5.41, 211.39 -25.34, 253.65 -30.3" stroke="#e67700" stroke-width="1.5" fill="none" stroke-dasharray="8 9"></path></g></g><g transform="translate(859.9999923706055 143.33334350585938) rotate(0 7.5 12.5)"><text x="0" y="18" font-family="Virgil, Segoe UI Emoji" font-size="20px" fill="#e67700" text-anchor="start" style="white-space: pre;" direction="ltr">3</text></g><g transform="translate(935.9999923706055 136.66665649414062) rotate(0 6.5 12.5)"><text x="0" y="18" font-family="Virgil, Segoe UI Emoji" font-size="20px" fill="#e67700" text-anchor="start" style="white-space: pre;" direction="ltr">5</text></g><g transform="translate(875.9999923706055 67.33334350585938) rotate(0 7 12.5)"><text x="0" y="18" font-family="Virgil, Segoe UI Emoji" font-size="20px" fill="#e67700" text-anchor="start" style="white-space: pre;" direction="ltr">4</text></g><g transform="translate(973.9999923706055 88) rotate(0 7 12.5)"><text x="0" y="18" font-family="Virgil, Segoe UI Emoji" font-size="20px" fill="#e67700" text-anchor="start" style="white-space: pre;" direction="ltr">6</text></g><g stroke-linecap="round"><g stroke-opacity="0.4" fill-opacity="0.4" transform="translate(1083.333366394043 86.33334350585938) rotate(0 -26.37767473533745 35.11159319952131)"><path d="M-0.4 1.05 C-9.01 12.55, -43.94 58.18, -52.35 69.17" stroke="#495057" stroke-width="1.5" fill="none" stroke-dasharray="8 9"></path></g></g><g stroke-linecap="round"><g stroke-opacity="0.4" fill-opacity="0.4" transform="translate(927.9999923706055 185) rotate(0 41.06489989832039 -9.108051265031094)"><path d="M-0.99 -0.17 C13.04 -3.22, 69.2 -15.37, 83.12 -18.05" stroke="#495057" stroke-width="1.5" fill="none" stroke-dasharray="8 9"></path></g></g><g stroke-linecap="round"><g stroke-opacity="0.4" fill-opacity="0.4" transform="translate(967.9999923706055 71) rotate(0 56.858753896504595 1.2849668376147747)"><path d="M-0.52 -0.4 C18.63 0.05, 94.95 2.55, 114.23 2.97" stroke="#495057" stroke-width="1.5" fill="none" stroke-dasharray="8 9"></path></g></g><g stroke-linecap="round"><g stroke-opacity="0.4" fill-opacity="0.4" transform="translate(961.9999923706055 75.66665649414062) rotate(0 29.390856873244047 37.62775702551008)"><path d="M0.75 0.63 C10.51 13.24, 48.25 62.28, 58.03 74.62" stroke="#495057" stroke-width="1.5" fill="none" stroke-dasharray="8 9"></path></g></g><g stroke-linecap="round"><g stroke-opacity="0.4" fill-opacity="0.4" transform="translate(954.6666793823242 79) rotate(0 -18.392588222771906 48.882855487614876)"><path d="M-0.07 -1.01 C-6.3 15.59, -30.54 82.14, -36.71 98.78" stroke="#495057" stroke-width="1.5" fill="none" stroke-dasharray="8 9"></path></g></g><g stroke-linecap="round"><g stroke-opacity="0.4" fill-opacity="0.4" transform="translate(1083.9999923706055 81) rotate(0 -79.58529292419553 50.59192791059613)"><path d="M0.3 0.65 C-26.2 17.43, -132.82 83.69, -159.48 100.54" stroke="#495057" stroke-width="1.5" fill="none" stroke-dasharray="8 9"></path></g></g></svg>